<svg width="24" height="24" viewBox="0 0 24 24" xmlns="http://www.w3.org/2000/svg">
<path d="M21.0458 10.7761C19.0058 9.50408 16.6778 9.28808 16.6778 9.28808H16.4378C16.1258 9.28808 15.8378 9.09608 15.7418 8.80808L15.6698 8.61608V10.5601C15.6698 11.3521 15.3578 12.1441 14.7818 12.6961L14.3018 13.1521C13.9178 13.5361 13.4618 13.8241 12.9578 14.0401L11.4458 14.6641L10.3898 16.3921C10.2698 16.5841 10.1258 16.7281 9.93384 16.8001L10.6058 17.8561H11.5658L11.9018 18.2641H9.35784L9.62184 17.8561H10.0538L9.42984 16.8961C8.99784 16.8961 8.58984 16.6321 8.42184 16.2481L8.03784 15.3841L7.26984 15.1681L6.54984 15.3841C6.40584 15.4321 6.26184 15.4321 6.11784 15.4081L2.70984 17.6161C2.22984 17.9281 1.58184 17.7841 1.26984 17.2801L5.27784 14.3041L5.18184 13.9681L11.4218 9.21608V8.92808C11.4218 7.17608 12.8618 5.73608 14.6138 5.73608H15.2858L15.9098 6.21608H16.3178C16.3418 6.21608 16.3898 6.21608 16.4138 6.21608C20.4938 6.21608 23.3738 9.86408 22.6058 11.7841C22.6058 11.8081 22.5818 11.8081 22.5818 11.8321C22.5818 11.8321 22.5818 11.8321 22.5818 11.8561C22.5818 11.8801 22.5818 11.8801 22.5578 11.9041C22.5578 11.9041 22.5578 11.9041 22.5578 11.9281C22.5578 11.9281 22.5578 11.9521 22.5338 11.9521C22.5338 11.9521 22.5338 11.9521 22.5338 11.9761C22.5338 12.0001 22.5338 12.0001 22.5098 12.0001C22.5098 12.0241 22.4858 12.0241 22.4858 12.0481C22.4858 12.0481 22.4858 12.0721 22.4618 12.0721C22.4618 12.0721 22.4618 12.0721 22.4618 12.0961C22.4138 12.1681 22.3418 12.2401 22.2938 12.2641V12.0241C22.2938 11.5921 21.0458 10.7761 21.0458 10.7761Z"/>
</svg>
