<svg width="24" height="24" viewBox="0 0 24 24" xmlns="http://www.w3.org/2000/svg">
    <path d="M8.20009 17.7803C4.84297 17.4712 1.20001 15.746 1.20001 14.265C3.47329 5.99364 16.7674 8.59548 22.4158 6.21948C20.9069 9.72444 16.9817 11.212 13.1242 11.212C12.9615 11.212 12.7987 11.2093 12.6365 11.204C14.1999 11.9305 16.7964 12.2075 18.127 12.2075C19.7868 12.2075 21.4294 11.9 22.8 11.0624C22.0445 12.3673 20.0011 14.9704 14.8253 14.9704C13.2415 14.9704 11.6491 14.6687 10.1772 14.1073C11.4862 15.4033 14.2167 16.5244 16.5108 16.804C15.4121 16.953 14.0681 16.9741 13.8629 16.9741C10.8499 16.9741 7.95649 16.0225 5.74369 14.128C6.00001 15.8663 7.05697 16.4737 8.20009 17.7803Z"/>
</svg>
