<svg width="24" height="24" viewBox="0 0 24 24" xmlns="http://www.w3.org/2000/svg">
    <path d="M18.104 13.192C17.512 13.248 16.912 13.336 16.328 13.48C15.736 13.624 15.152 13.816 14.584 14.064C13.448 14.56 12.352 15.28 11.472 16.304C11.4 16.392 11.328 16.48 11.264 16.568C11.192 16.48 11.128 16.392 11.048 16.304C10.168 15.272 9.07199 14.56 7.93599 14.064C7.36799 13.816 6.78399 13.616 6.19199 13.48C5.59999 13.336 5.00799 13.24 4.41599 13.192C3.82399 13.144 3.23199 13.136 2.63999 13.176C2.05599 13.216 1.47199 13.304 0.903992 13.44C1.47199 13.584 2.02399 13.728 2.55999 13.888C3.09599 14.048 3.62399 14.224 4.13599 14.424C5.15199 14.816 6.11999 15.288 6.97599 15.856C7.83199 16.424 8.59199 17.088 9.12799 17.832C9.39199 18.208 9.60799 18.592 9.75199 18.984C9.88799 19.376 10.552 20.368 11.256 20.368C11.968 20.368 12.624 19.384 12.76 18.984C12.896 18.592 13.112 18.2 13.384 17.832C13.92 17.088 14.68 16.416 15.536 15.856C16.392 15.288 17.36 14.816 18.376 14.424C18.888 14.224 19.408 14.048 19.952 13.888C20.488 13.728 21.04 13.584 21.608 13.44C21.04 13.296 20.464 13.216 19.872 13.176C19.296 13.136 18.704 13.144 18.104 13.192Z"/>
    <path d="M20.9201 5.82414C20.5521 5.85614 20.1841 5.91214 19.816 6.00814C19.448 6.09614 19.088 6.21614 18.736 6.36814C18.032 6.68014 17.352 7.12014 16.808 7.76014C16.76 7.81614 16.72 7.86414 16.68 7.92014C16.64 7.86414 16.592 7.80814 16.552 7.76014C16.008 7.12014 15.328 6.68014 14.624 6.36814C14.272 6.21614 13.912 6.08814 13.544 6.00814C13.176 5.92014 12.808 5.86414 12.44 5.82414C12.072 5.79214 11.704 5.78414 11.336 5.81614C10.976 5.84014 10.616 5.89614 10.264 5.98414C10.616 6.07214 10.96 6.16014 11.288 6.26414C11.624 6.36014 11.944 6.47214 12.264 6.60014C12.896 6.84014 13.496 7.13614 14.024 7.48814C14.552 7.84014 15.024 8.24814 15.36 8.71214C15.528 8.94414 15.656 9.18414 15.744 9.42414C15.832 9.67214 16.24 10.2801 16.68 10.2801C17.12 10.2801 17.528 9.67214 17.616 9.42414C17.704 9.17614 17.84 8.93614 18 8.70414C18.328 8.24014 18.8 7.83214 19.336 7.48014C19.872 7.12814 20.4641 6.83214 21.0961 6.59214C21.4161 6.47214 21.7361 6.36014 22.0721 6.25614C22.4081 6.16014 22.7521 6.07214 23.0961 5.97614C22.7441 5.88814 22.3841 5.84014 22.0241 5.80814C21.6561 5.78414 21.2881 5.79214 20.9201 5.82414Z"/>
    <path d="M5.36796 5.12808C5.38396 5.15208 5.39996 5.16808 5.40796 5.19208C5.41596 5.20008 5.41596 5.20808 5.42396 5.22408C5.43196 5.23208 5.43196 5.24008 5.43196 5.24808C5.44796 5.28008 5.44796 5.30408 5.44796 5.33608V5.35208C5.45596 5.60008 5.66396 5.80008 5.91196 5.80008C6.16796 5.80008 6.37596 5.59208 6.37596 5.34408V5.33608C6.37596 5.31208 6.38396 5.28808 6.39196 5.24808C6.39996 5.24008 6.39996 5.23208 6.39996 5.22408C6.40796 5.21608 6.40796 5.20808 6.41596 5.19208C6.43196 5.17608 6.43996 5.15208 6.45596 5.12808C6.51996 5.04008 6.62396 4.94408 6.74396 4.86408C6.98396 4.68808 7.28796 4.54408 7.59996 4.42408C7.75996 4.36008 7.91996 4.30408 8.07996 4.24808C8.24796 4.19208 8.40796 4.14408 8.58396 4.08808C8.75196 4.04008 8.92796 3.99208 9.10396 3.94408C9.27996 3.89608 9.45596 3.84809 9.63196 3.80009C9.27196 3.69609 8.90396 3.65609 8.52796 3.64009C8.15196 3.63209 7.77596 3.65609 7.39996 3.72809C7.02396 3.80008 6.63996 3.92008 6.27196 4.12808C6.14396 4.20008 6.02396 4.28808 5.90396 4.39208C5.78396 4.28808 5.66396 4.20008 5.53596 4.12808C5.35196 4.02408 5.16796 3.94409 4.97596 3.87209C4.79196 3.80809 4.59996 3.76009 4.40796 3.72009C4.03196 3.64809 3.64796 3.62409 3.27996 3.63209C2.90396 3.64809 2.53596 3.69609 2.17596 3.79209C2.35196 3.84809 2.53596 3.88809 2.70396 3.93609C2.87996 3.98408 3.04796 4.03208 3.22396 4.08008C3.31196 4.10408 3.39196 4.12808 3.47996 4.16008C3.55996 4.18408 3.64796 4.21608 3.72796 4.24008C3.88796 4.29608 4.05596 4.35208 4.20796 4.41608C4.51996 4.54408 4.82396 4.68808 5.06396 4.85608C5.19196 4.94408 5.30396 5.04008 5.36796 5.12808Z"/>
</svg>
