<svg width="96" height="96" viewBox="0 0 96 96" fill="none" xmlns="http://www.w3.org/2000/svg">
<path d="M8 42.5653V86.5001C16 86.5001 24 78.5001 24 64.5001V60.5001C24 48.5917 20.9534 41.7516 8 42.5653Z" fill="black"/>
<path d="M8.09573 30.4414L8.04883 38.5642C8.72173 38.5266 9.38113 38.5 10.0059 38.5C28 38.5 28 54.4844 28 60.5V64.5C28.0744 69.1242 27.1663 73.7116 25.3357 77.9587H27.0825C32.9688 76.8704 38.2865 73.7511 42.109 69.1445C45.9314 64.5379 48.0162 58.736 48 52.75V10.5H30.8594C18.832 10.5 8.62113 19.4453 8.09573 30.4414ZM28 26.5C27.2089 26.5 26.4355 26.2654 25.7777 25.8259C25.12 25.3864 24.6073 24.7616 24.3045 24.0307C24.0018 23.2998 23.9225 22.4956 24.0769 21.7196C24.2312 20.9437 24.6122 20.231 25.1716 19.6716C25.731 19.1122 26.4437 18.7312 27.2197 18.5769C27.9956 18.4225 28.7999 18.5017 29.5308 18.8045C30.2617 19.1072 30.8864 19.6199 31.3259 20.2777C31.7654 20.9355 32 21.7089 32 22.5C31.999 23.5605 31.5772 24.5773 30.8273 25.3273C30.0774 26.0772 29.0606 26.4989 28 26.5V26.5Z" fill="black"/>
<path d="M66 10.5H52V30.5H86C86.2627 30.5002 86.5228 30.4485 86.7656 30.3481C87.0083 30.2476 87.2288 30.1003 87.4146 29.9146C87.6003 29.7288 87.7476 29.5083 87.8481 29.2656C87.9485 29.0228 88.0002 28.7627 88 28.5C88 16.3711 78.1309 10.5 66 10.5Z" fill="black"/>
<path d="M52 46.5H62C72.5334 46.5 78.86 42.1323 79.8074 34.5H52V46.5Z" fill="black"/>
</svg>
